# xmcd
#
# Track frame offsets:
#	150
#	14820
#	29652
#	44700
#	58970
#	72832
#	85585
#	95885
#	109762
#	121929
#	136747
#	149932
#	159735
#	173140
#	182427
#	196865
#	210347
#	221312
#	235975
#	248182
#
# Disc length: 3474 seconds
#
# Revision: 0
# Processed by: cddbd v1.4PL0 Copyright (c) Steve Scherf et al.
# Submitted via: dBpowerAMP V4.0
#
DISCID=2d0d9014
DTITLE=Suzamar - Raízes sertanejas
DYEAR=1900
DGENRE=Country
TTITLE0=Chalana
TTITLE1=Galopeira
TTITLE2=Surra de amor
TTITLE3=Fim de noite
TTITLE4=Castelo de amor
TTITLE5=Cavalo ventania
TTITLE6=Meu querido Paraná
TTITLE7=Maldito amor
TTITLE8=O tropeiro(El bandolero)
TTITLE9=Poeira
TTITLE10=Vinte anos
TTITLE11=Estrada da vida
TTITLE12=Saudade da galopeira
TTITLE13=Eu vendo uns olhos negros
TTITLE14=Anahi
TTITLE15=Quem será
TTITLE16=O trovador de Toledo
TTITLE17=Pombinha branca(Vola colomba)
TTITLE18=Canarinho do peito amarelo
TTITLE19=Rancho grande
EXTD=
EXTT0=
EXTT1=
EXTT2=
EXTT3=
EXTT4=
EXTT5=
EXTT6=
EXTT7=
EXTT8=
EXTT9=
EXTT10=
EXTT11=
EXTT12=
EXTT13=
EXTT14=
EXTT15=
EXTT16=
EXTT17=
EXTT18=
EXTT19=
PLAYORDER=
